<svg xmlns="http://www.w3.org/2000/svg" viewBox="0 0 1024 1024">
  <defs>
    <radialGradient id="bg" cx="50%" cy="35%" r="75%">
      <stop offset="0" stop-color="#1b2534"/><stop offset="1" stop-color="#090b10"/>
    </radialGradient>
    <radialGradient id="body" cx="38%" cy="28%" r="80%">
      <stop offset="0" stop-color="#ffffff"/><stop offset="0.6" stop-color="#eef0f3"/><stop offset="1" stop-color="#c9ced6"/>
    </radialGradient>
    <radialGradient id="visor" cx="50%" cy="45%" r="65%">
      <stop offset="0" stop-color="#1c2a3a"/><stop offset="0.7" stop-color="#0b1019"/><stop offset="1" stop-color="#04060a"/>
    </radialGradient>
    <radialGradient id="eye" cx="50%" cy="50%" r="50%">
      <stop offset="0" stop-color="#e8fbff"/><stop offset="0.35" stop-color="#7fe0ff"/><stop offset="0.75" stop-color="#2eb8ff"/><stop offset="1" stop-color="#1a8fe0"/>
    </radialGradient>
    <filter id="glow" x="-80%" y="-80%" width="260%" height="260%">
      <feGaussianBlur stdDeviation="14" result="b"/><feMerge><feMergeNode in="b"/><feMergeNode in="SourceGraphic"/></feMerge>
    </filter>
    <filter id="soft" x="-80%" y="-80%" width="260%" height="260%"><feGaussianBlur stdDeviation="40"/></filter>
    <filter id="shadow" x="-20%" y="-20%" width="140%" height="150%">
      <feDropShadow dx="0" dy="28" stdDeviation="30" flood-color="#000" flood-opacity=".6"/>
    </filter>
  </defs>
  <rect x="64" y="64" width="896" height="896" rx="200" fill="url(#bg)"/>
  <!-- head: rounded shell, slightly wider at the top -->
  <path filter="url(#shadow)" fill="url(#body)"
        d="M512 168c188 0 318 138 318 326 0 176-124 342-318 342S194 670 194 494c0-188 130-326 318-326z"/>
  <!-- visor: rounded inverted triangle -->
  <path fill="url(#visor)"
        d="M292 434 C292 346 390 288 512 288 C634 288 732 346 732 434 C732 546 642 658 512 658 C382 658 292 546 292 434 Z"/>
  <!-- eyes -->
  <g fill="#3fc1ff" filter="url(#glow)">
    <ellipse cx="438" cy="470" rx="62" ry="40" transform="rotate(14 438 470)"/>
    <ellipse cx="586" cy="470" rx="62" ry="40" transform="rotate(-14 586 470)"/>
  </g>
</svg>
